<svg xmlns="http://www.w3.org/2000/svg" width="294.748" height="415.386" viewBox="0 0 294.748 415.386"><path id="Path_57" data-name="Path 57" d="M265.207,229.466q0-16.141,7.23-33.539H173.007v37.165a54.609,54.609,0,0,1,7.252-.777q4.662-.259,11.4-.259V243.97q-31.6,3.108-53.352,13.467-22.792,11.914-41.957,35.741Q92.2,288,87.539,282.819t-9.324-10.878q-11.4-12.949-23.309-12.95-11.4,0-22.792,12.432l-8.806-10.878a186.658,186.658,0,0,1,16.835-12.432q10.1-6.733,23.568-15.021a43.113,43.113,0,0,1,15.539-2.59q23.827,0,42.992,20.719,3.108-2.071,6.734-4.144t7.77-4.144V195.927H0V183.638H68.578L38.331,160.575,20.2,176.632l-8.288-9.324,24.863-22.791V48.691q-3.626,0-6.993-.259t-6.475-.777V35.741q9.324.518,14.5.518h6.216Q97.9,36.259,132.6,0L171.97,30.043l14.5-13.468,8.288,9.324-21.755,20.72v137.02H278.252a135.563,135.563,0,0,1,7.934-12.962q6.475-9.583,16.316-23.05Q347.049,86.5,371.912,33.151,341.869,56.978,313.38,56.978q-21.237,0-53.87-11.913L241.9,82.877,231.02,77.7,267.279,0q33.669,25.381,76.662,25.381,29.007,0,40.4-25.381l10.878,4.144Q384.861,40.921,359.48,92.2q-8.288,16.057-16.576,31.856t-16.575,31.856q-7.451,15.265-12.288,27.725H414.386v12.289H309.69q-4.6,14.574-4.6,24.216,0,18.13,15.021,33.151l18.647-18.129,8.288,8.806-50.763,49.208Q265.208,267.8,265.207,229.466Zm-128.46-45.828V138.82L88.883,183.638ZM73.036,45.583v91.165l26.417,20.72,37.295-35.741V52.316L109.812,32.633Q90.647,45.582,73.036,45.583Z" transform="translate(293.977 0.5) rotate(90)" fill="none" stroke="#212223" stroke-width="1"/></svg>
