<svg xmlns="http://www.w3.org/2000/svg" width="64" height="64" viewBox="0 0 64 64"><g id="dm" transform="translate(-561 -820)"><rect id="Rectangle_24" data-name="Rectangle 24" width="64" height="64" transform="translate(561 820)" fill="#e83837"/><g id="dm-hat" transform="translate(561.085 822.717)"><path id="Path_66" data-name="Path 66" d="M40.422,28.9l1.1-8.328a9.4,9.4,0,0,0-6.159-16.5h-.325a6.906,6.906,0,0,0-11.666,0h-.329a9.4,9.4,0,0,0-6.158,16.5l1.558,11.854ZM40.37,45.606a11.007,11.007,0,0,1-17.8,9.671c-2.6-2.078-3.441-4.266-4.134-7.314l4.252-.688c.472,1.92.887,3.3,2.623,4.658a6.7,6.7,0,0,0,10.778-5.8l-.082-1.014,4.252-.688.1,1.174Z" fill="#fff" fill-rule="evenodd"/><path id="Path_67" data-name="Path 67" d="M40.325,45.63a11.007,11.007,0,0,1-17.8,9.67c-2.607-2.077-3.451-4.258-4.139-7.316l4.252-.688c.472,1.92.887,3.3,2.623,4.658a6.7,6.7,0,0,0,10.778-5.8l-.081-1.014,4.251-.688.11,1.177Zm8.223.21v0Zm7.22-9.379q-.575,1.957-1.277,3.873-.656,1.781-1.456,3.5a7.938,7.938,0,0,1-.569,1.051,3.261,3.261,0,0,1-.627.707,2.194,2.194,0,0,1-.766.407,3.488,3.488,0,0,1-1,.129,4.1,4.1,0,0,1-.876-.09h-.026v-1.72a2.774,2.774,0,0,0,.8.1,1.128,1.128,0,0,0,.834-.292,2.35,2.35,0,0,0,.5-.809,39.253,39.253,0,0,1-2.7-6.85h2.143q.135.527.32,1.149t.385,1.25c.139.423.278.832.417,1.23s.276.762.4,1.088q.41-1.146.742-2.317.186-.635.354-1.251t.307-1.148l2.09-.016Z" fill="#fff" fill-rule="evenodd"/><path id="Path_68" data-name="Path 68" d="M46.882,54.738V44.632l2.022-.326v3.32a4.463,4.463,0,0,1,.525-.128,3.191,3.191,0,0,1,.616-.06,3.785,3.785,0,0,1,1.445.239,2.232,2.232,0,0,1,.924.672,2.618,2.618,0,0,1,.488,1.033,5.738,5.738,0,0,1,.141,1.332v4.035H51.021v-3.8a2.7,2.7,0,0,0-.262-1.387,1.012,1.012,0,0,0-.929-.407,2.594,2.594,0,0,0-.509.047c-.159.032-.3.066-.427.1v5.435Zm-6.324-3.572a4.226,4.226,0,0,1,.262-1.461A3.416,3.416,0,0,1,42.7,47.7a3.8,3.8,0,0,1,1.548-.3,4.848,4.848,0,0,1,1.972.4l-.42,1.618a5.085,5.085,0,0,0-.624-.189,3.258,3.258,0,0,0-.76-.081,1.6,1.6,0,0,0-1.335.557,2.29,2.29,0,0,0-.441,1.468,2.366,2.366,0,0,0,.414,1.495,1.743,1.743,0,0,0,1.446.525,4.834,4.834,0,0,0,.787-.068,3.308,3.308,0,0,0,.773-.218l.286,1.658a4.749,4.749,0,0,1-.881.263,5.8,5.8,0,0,1-1.167.107,4.384,4.384,0,0,1-1.682-.291,3.17,3.17,0,0,1-1.159-.788,3.1,3.1,0,0,1-.664-1.19,5.054,5.054,0,0,1-.21-1.488m-28.6-.226a2.7,2.7,0,0,0-.263-1.387.93.93,0,0,0-.86-.407c-.131,0-.263.008-.393.021s-.268.03-.394.047v5.517H8.062v-6.9q.661-.17,1.335-.279c.257-.04.52-.071.787-.094s.533-.034.8-.034a3.353,3.353,0,0,1,1.275.2,2.835,2.835,0,0,1,.787.467,3.774,3.774,0,0,1,2.046-.664,3.56,3.56,0,0,1,1.4.239,2.108,2.108,0,0,1,.876.672,2.555,2.555,0,0,1,.449,1.033,6.691,6.691,0,0,1,.123,1.332v4.035H15.9V50.947a2.7,2.7,0,0,0-.263-1.387.93.93,0,0,0-.86-.407,2.235,2.235,0,0,0-.937.286,3.087,3.087,0,0,1,.124.66q.026.346.026.74v3.9h-2.01V50.947ZM48.036,38.253q-.316-.081-.637-.142a3.666,3.666,0,0,0-1.24-.04,2.873,2.873,0,0,0-.4.074v5.462H43.734V36.84a12.461,12.461,0,0,1,1.283-.36,7.383,7.383,0,0,1,1.647-.17c.109,0,.24.007.394.02a8.289,8.289,0,0,1,.923.137,2.161,2.161,0,0,1,.393.116l-.338,1.67ZM32.28,43.607q-.782-1.554-1.411-3.179-.762-1.954-1.354-3.967h2.154q.135.525.32,1.148.367,1.246.776,2.48c.131.4.263.762.388,1.088q.177-.489.383-1.088c.139-.4.272-.809.4-1.23s.262-.837.383-1.25.228-.788.32-1.148h2.1q-.593,2.011-1.353,3.967-.626,1.624-1.409,3.18h-1.7Zm-3.087-9.213a1.109,1.109,0,0,1-.36.885,1.286,1.286,0,0,1-1.7,0,1.25,1.25,0,0,1,0-1.752,1.286,1.286,0,0,1,1.7,0,1.11,1.11,0,0,1,.36.877ZM29,43.618H26.982v-7.16H29v7.16Zm-3.149.126a5.044,5.044,0,0,1-1.432-.19,2.116,2.116,0,0,1-.869-.5,1.645,1.645,0,0,1-.435-.775A4.192,4.192,0,0,1,23,41.256V33.387l2.022-.325v7.787a2.666,2.666,0,0,0,.042.488.84.84,0,0,0,.157.368.826.826,0,0,0,.333.244,1.82,1.82,0,0,0,.583.124l-.286,1.67Zm10.631-3.657a4.378,4.378,0,0,1,.29-1.666,3.578,3.578,0,0,1,.767-1.19,3.184,3.184,0,0,1,1.09-.72,3.4,3.4,0,0,1,1.27-.244,3.145,3.145,0,0,1,2.4.93,3.835,3.835,0,0,1,.882,2.737c0,.118-.005.246-.014.386s-.017.265-.026.374H38.562a1.35,1.35,0,0,0,.582.993,2.339,2.339,0,0,0,1.385.367,5.868,5.868,0,0,0,1.091-.1,4.113,4.113,0,0,0,.876-.263l.263,1.645a2.888,2.888,0,0,1-.436.163,5.93,5.93,0,0,1-.6.142q-.333.06-.713.1a7.1,7.1,0,0,1-.761.04,4.49,4.49,0,0,1-1.676-.287,3.263,3.263,0,0,1-1.18-.788,3.1,3.1,0,0,1-.693-1.174,4.665,4.665,0,0,1-.223-1.469l.01.024Zm4.737-.8a2.084,2.084,0,0,0-.09-.5,1.228,1.228,0,0,0-.624-.749,1.278,1.278,0,0,0-.59-.123,1.338,1.338,0,0,0-.582.116,1.2,1.2,0,0,0-.407.3,1.4,1.4,0,0,0-.262.442,2.907,2.907,0,0,0-.129.51l2.684,0Zm-25.65.8a4.378,4.378,0,0,1,.291-1.655,3.55,3.55,0,0,1,.766-1.19,3.188,3.188,0,0,1,1.091-.72,3.4,3.4,0,0,1,1.27-.245,3.145,3.145,0,0,1,2.4.93,3.841,3.841,0,0,1,.88,2.738c0,.117,0,.246-.012.386s-.018.264-.027.373H17.65a1.349,1.349,0,0,0,.582.993,2.342,2.342,0,0,0,1.372.36,5.83,5.83,0,0,0,1.091-.1,4.113,4.113,0,0,0,.876-.263l.263,1.644a2.688,2.688,0,0,1-.436.163,5.44,5.44,0,0,1-.6.142c-.222.04-.46.075-.713.1a7.1,7.1,0,0,1-.761.04,4.49,4.49,0,0,1-1.676-.287,3.263,3.263,0,0,1-1.18-.788,3.1,3.1,0,0,1-.693-1.175,4.662,4.662,0,0,1-.223-1.468l.024.02Zm4.724-.8a2.134,2.134,0,0,0-.09-.5,1.256,1.256,0,0,0-.23-.436,1.228,1.228,0,0,0-.373-.29,1.278,1.278,0,0,0-.59-.123,1.356,1.356,0,0,0-.582.116,1.2,1.2,0,0,0-.4.307,1.379,1.379,0,0,0-.263.442,2.917,2.917,0,0,0-.128.51Zm-10.172.688a2.477,2.477,0,0,0,.42,1.508,1.451,1.451,0,0,0,1.248.57,5.718,5.718,0,0,0,.881-.068V38.31a1.761,1.761,0,0,0-.495-.205,2.38,2.38,0,0,0-.617-.082q-1.437,0-1.437,1.958v0Zm4.572,3.4q-.308.093-.625.155a13.542,13.542,0,0,1-1.526.218q-.382.033-.766.034a4.481,4.481,0,0,1-1.574-.263,3.163,3.163,0,0,1-1.167-.74,3.217,3.217,0,0,1-.713-1.167,4.473,4.473,0,0,1-.263-1.542A5.286,5.286,0,0,1,8.28,38.5a3.422,3.422,0,0,1,.624-1.19,2.691,2.691,0,0,1,.994-.738,3.34,3.34,0,0,1,1.351-.263,3.132,3.132,0,0,1,.753.082,4.056,4.056,0,0,1,.671.23v-3.23l2.023-.326V43.379Z" fill="#fff" fill-rule="evenodd"/></g></g></svg>