<svg xmlns="http://www.w3.org/2000/svg" width="128" height="128" viewBox="0 0 128 128"><path d="M118.769,0H9.231A9.231,9.231,0,0,0,0,9.231V118.769A9.231,9.231,0,0,0,9.231,128H118.769A9.231,9.231,0,0,0,128,118.769V9.231A9.231,9.231,0,0,0,118.769,0ZM45.4,96.75H29.815V49.856H45.4Zm-7.793-53.3h-.1c-5.23,0-8.613-3.6-8.613-8.1,0-4.6,3.486-8.1,8.818-8.1s8.613,3.5,8.715,8.1C46.428,39.853,43.045,43.453,37.609,43.453Zm64,53.3H86.021V71.663c0-6.3-2.257-10.6-7.9-10.6a8.533,8.533,0,0,0-8,5.7,10.674,10.674,0,0,0-.513,3.8V96.75H54.028s.2-42.494,0-46.894H69.614V56.5c2.071-3.2,5.777-7.74,14.047-7.74,10.255,0,17.944,6.7,17.944,21.105Zm0,0" fill="#fff"/></svg>