<svg xmlns="http://www.w3.org/2000/svg" width="596.44" height="216.257" viewBox="0 0 596.44 216.257"><path d="M18.352,58.28A10.648,10.648,0,0,1,18.1,56.3v-.5q0-5.952,8.431-18.848,8.681-12.9,8.681-18.1,0-17.111-17.36-21.576V-44H0v-6H17.856V-72.168L12.4-76.88l-7.192,6.2L1.488-74.9,23.56-94.24l13.888,12.4,7.688-6.7,3.72,4.464-13.639,11.9V-50H67.7v-80.943q0-6.944-2.728-17.856l5.456-1.736q1.239,5.455,1.984,9.671t1.24,7.193q3.472-11.409,15.624-24.3l3.968,3.224a41.394,41.394,0,0,0-8.184,25.545V-50h35.96V-72.168h-6.2v-5.7q16.616,0,26.784-2.976,12.648-3.224,23.809-13.392l17.608,12.9,7.936-6.944,3.72,4.464L182.528-72.912V-50h37.037q2.8-2.575,4.627-2.576h14.384l17.856-25.792q-13.144,9.176-24.552,9.176A33.889,33.889,0,0,1,215.264-73.9l-5.207,7.689-4.712-3.225,17.36-24.8q10.912,9.424,24.3,9.424,12.648,0,19.84-7.192l4.464,3.472-25.544,35.96h11.408l5.208-7.439,4.711,3.471q-2.465,3.77-4.4,6.544h29.7V-72.168h-6.2v-5.7q16.616,0,26.784-2.976,12.648-3.224,23.808-13.392l17.609,12.9,7.936-6.944,3.72,4.464L353.9-72.912V-50h34.72V-72.168q-14.137-6.7-14.136-20.584,0-20.088,19.592-26.04l1.736,5.456q-10.665,4.712-10.664,11.9,0,12.9,20.831,12.9V-50h27.032V-68.944l-7.936-7.689-5.456,5.208-3.968-4.464L435.984-94.24l14.88,14.384L459.3-87.3l3.968,4.216-12.9,11.656V-50H484.1V-72.168q-2.48.248-3.72.248h-1.24l-1.488-.124q-1.488-.124-4.712-.372v-5.7q27.281,0,46.376-16.12L545.6-61.5,528.247-50h31.737V-71.176l-6.7-5.7-7.688,6.7-3.472-4.464,22.32-19.592,13.889,12.648,7.688-6.2,3.72,4.216-12.4,11.16V-50h19.1v6h-19.1v12.752q0,11.656,5.7,15.872l6.448-5.7,3.72,4.464L570.9,2.728Q559.984-5.207,559.984-23.56V-44H519.2l-17.74,11.76v13.888l11.408,6.943,22.072-14.88,3.225,4.96-36.7,24.056L481.616-9.424l-5.952,5.7-3.721-4.712L484.1-19.592V-44H450.368v24.408a14.868,14.868,0,0,1,2.232-.247h1.488a20.44,20.44,0,0,1,2.728.247v5.952q-3.719-.247-5.952-.248h-2.976q-25.295,0-41.664,16.616l-19.1-13.64-7.192,6.2-3.72-4.216,12.4-11.408V-44H353.9v24.9h5.952v5.7q-29.512,0-50.1,16.12l-18.6-13.144-6.943,6.2L280.24-8.68l12.152-10.664V-44H258.153a7.869,7.869,0,0,1-1.722,1.592q-2.727,1.488-19.1,1.488L215.76-11.656q15.872-9.92,27.777-9.92,8.928,0,19.1,5.7l3.968-5.7,4.712,3.224L256.432,2.728Q241.8-8.184,229.4-8.184q-13.64,0-21.08,8.184l-4.96-3.72,26.784-37.2H219.232l-6.2,8.681-4.711-3.224q3.259-5,5.969-8.536H182.528v24.9h5.952v5.7q-29.512,0-50.1,16.12l-18.6-13.144-6.944,6.2L108.872-8.68l12.152-10.664V-44H85.064v24.656l5.7,5.456,8.185-7.44,3.968,4.217L80.1,2.728,65.968-10.664,57.536-3.72,53.568-8.432,67.7-20.336V-44H35.216v29.864Q49.1-6.7,49.1,9.424q0,11.656-12.9,26.784Q23.56,51.584,23.56,58.28ZM405.976-20.088l10.664,7.936q3.969-2.233,16.368-5.953V-44H405.976ZM309.752-22.32l12.9,9.424q2.728-1.239,6.2-2.48a71.585,71.585,0,0,1,7.688-2.232V-44H309.752Zm-171.368,0,12.9,9.424q2.728-1.239,6.2-2.48a71.583,71.583,0,0,1,7.688-2.232V-44H138.384ZM501.456-38.936,508.9-44h-7.448ZM517.727-50l8.529-5.8-18.1-22.072-6.7,2.232V-50ZM336.536-50V-71.176l-10.664-7.689a62.421,62.421,0,0,1-16.12,5.7V-50ZM165.168-50V-71.176L154.5-78.864a62.422,62.422,0,0,1-16.12,5.7V-50ZM553.784-120.28l-5.208,4.464-3.72-4.464,20.088-17.36,13.888,12.4,4.96-4.216,3.72,4.464-19.592,17.36Zm-539.9-1.489L8.68-117.3l-3.967-4.464L24.8-139.128l13.888,12.4,4.96-4.216,3.968,4.464L28.024-109.12Z" transform="translate(0 157.976)" fill="#1f2222"/></svg>