<svg xmlns="http://www.w3.org/2000/svg" width="128" height="128" viewBox="0 0 128 128"><g transform="translate(21.596 -54.331)"><path d="M118.769,0H9.231A9.231,9.231,0,0,0,0,9.231V118.769A9.231,9.231,0,0,0,9.231,128H118.769A9.231,9.231,0,0,0,128,118.769V9.231A9.231,9.231,0,0,0,118.769,0Z" transform="translate(-21.596 54.331)" fill="#fff"/><g transform="translate(0 94.467)"><g transform="translate(0 0)"><path d="M83.631,111.933l-39.737,30.82a2.48,2.48,0,0,1-2.98,0L1.178,111.933A7.388,7.388,0,0,0,0,115.92v39.754a7.462,7.462,0,0,0,7.454,7.454h69.9a7.462,7.462,0,0,0,7.454-7.454V115.92A7.388,7.388,0,0,0,83.631,111.933Z" transform="translate(0 -111.933)"/></g></g><g transform="translate(5.27 91)"><g transform="translate(0 0)"><path d="M103.9,91H34a7.35,7.35,0,0,0-2.184.364l37.134,28.83,37.134-28.83A7.35,7.35,0,0,0,103.9,91Z" transform="translate(-31.816 -91)"/></g></g></g></svg>