<svg xmlns="http://www.w3.org/2000/svg" width="128" height="128" viewBox="0 0 128 128"><path d="M118.769,0H9.231A9.231,9.231,0,0,0,0,9.231V118.769A9.231,9.231,0,0,0,9.231,128H118.769A9.231,9.231,0,0,0,128,118.769V9.231A9.231,9.231,0,0,0,118.769,0ZM93.222,49.9q.042.945.042,1.9c0,19.411-14.775,41.795-41.8,41.8h0A41.58,41.58,0,0,1,28.951,87a29.877,29.877,0,0,0,3.5.2A29.475,29.475,0,0,0,50.7,80.911a14.706,14.706,0,0,1-13.724-10.2,14.641,14.641,0,0,0,6.635-.252,14.694,14.694,0,0,1-11.785-14.4c0-.066,0-.126,0-.187a14.588,14.588,0,0,0,6.653,1.837,14.7,14.7,0,0,1-4.548-19.611A41.706,41.706,0,0,0,64.213,53.443a14.7,14.7,0,0,1,25.032-13.4,29.464,29.464,0,0,0,9.328-3.565,14.747,14.747,0,0,1-6.46,8.125,29.3,29.3,0,0,0,8.436-2.313A29.853,29.853,0,0,1,93.222,49.9Zm0,0" fill="#fff"/></svg>